<svg xmlns="http://www.w3.org/2000/svg" version="1.1" xmlns:xlink="http://www.w3.org/1999/xlink" xmlns:svgjs="http://svgjs.dev/svgjs" width="100%" height="100%" viewBox="0 0 1000 600"><rect width="1000" height="600" x="0" y="0" fill="white"/><g><circle r="166.66666666666666" cx="411.57155863444007" cy="433.79382082219547" fill="#FFA500FF" transform="matrix(0.5104022283576454,0,0,0.5104022283576454,0,78.59068214591252)"/><path d="M363.7228174024852 481.076448628966L363.7228174024852 481.076448628966Q352.9664764758846 481.076448628966 345.0407515825999 477.000361540991Q337.1376716175818 472.92427445301604 332.81249031867503 465.1797089858636Q328.5099539480348 457.4351435187112 328.5099539480348 446.8373170899763L328.5099539480348 446.8373170899763L328.5099539480348 393.0329675287068Q328.5099539480348 382.2766266021062 332.81249031867503 374.5999959197534Q337.1376716175818 366.9460101656671 345.0407515825999 362.8699230776921Q352.9664764758846 358.79383598971714 363.7228174024852 358.79383598971714L363.7228174024852 358.79383598971714Q374.47915832908575 358.79383598971714 382.3143035093043 362.9605027907582Q390.12680376125627 367.10452466353274 394.361405347097 374.7811553458856Q398.61865186120417 382.43514109997193 398.61865186120417 393.0329675287068L398.61865186120417 393.0329675287068L383.9447383444943 393.0329675287068Q383.9447383444943 382.9333295218355 378.6458251301268 377.45325688133585Q373.3469119157594 371.9958291691027 363.7228174024852 371.9958291691027L363.7228174024852 371.9958291691027Q354.098722889211 371.9958291691027 348.6412951769778 377.38532209653624Q343.1838674647447 382.75217009570326 343.1838674647447 392.8744530308411L343.1838674647447 392.8744530308411L343.1838674647447 446.8373170899763Q343.1838674647447 456.93695509684756 348.6412951769778 462.4849625221468Q354.098722889211 468.0329699474461 363.7228174024852 468.0329699474461L363.7228174024852 468.0329699474461Q373.3469119157594 468.0329699474461 378.6458251301268 462.4849625221468Q383.9447383444943 456.93695509684756 383.9447383444943 446.8373170899763L383.9447383444943 446.8373170899763L383.9447383444943 432.16340357326646L359.8052448123759 432.16340357326646L359.8052448123759 418.8028958960152L398.61865186120417 418.8028958960152L398.61865186120417 446.8373170899763Q398.61865186120417 457.27662902084546 394.361405347097 465.02119448799795Q390.12680376125627 472.7657599551503 382.3143035093043 476.9097818279249Q374.47915832908575 481.076448628966 363.7228174024852 481.076448628966ZM466.59872651731985 508.7938408271957L438.2246313993609 508.7938408271957L438.2246313993609 495.4333331499445L466.7572410151856 495.4333331499445Q473.6186542799435 495.4333331499445 476.7889442372573 492.33097797743017Q479.95923419457114 489.22862280491586 479.95923419457114 482.70688346415596L479.95923419457114 482.70688346415596L479.95923419457114 471.29383961782605L480.2989081185691 454.98949126592623L477.35506744392046 454.98949126592623L480.1403936207033 452.5438390131412Q480.1403936207033 462.32644802428115 473.6186542799435 468.0329699474461Q467.09691493918353 473.739491870611 456.1594145864507 473.739491870611L456.1594145864507 473.739491870611Q442.3007184873358 473.739491870611 434.3070588092516 464.68152056400004Q426.3360440594339 455.64619418565553 426.3360440594339 440.31557774921635L426.3360440594339 440.31557774921635L426.3360440594339 421.40706264666585Q426.3360440594339 406.07644621022666 434.3070588092516 397.10905461668176Q442.3007184873358 388.14166302313686 456.1594145864507 388.14166302313686L456.1594145864507 388.14166302313686Q467.09691493918353 388.14166302313686 473.6186542799435 393.8481849463018Q480.1403936207033 399.5547068694667 480.1403936207033 409.33731588060664L480.1403936207033 409.33731588060664L477.35506744392046 406.8916636278217L480.1403936207033 406.8916636278217L480.1403936207033 389.77209785832684L494.633147711281 389.77209785832684L494.633147711281 482.70688346415596Q494.633147711281 494.7766302302151 487.22825616812656 501.7739130645722Q479.80071969670547 508.7938408271957 466.59872651731985 508.7938408271957L466.59872651731985 508.7938408271957ZM460.5751755984236 461.01304218482255L460.5751755984236 461.01304218482255Q469.70108168983415 461.01304218482255 474.9094151911355 455.3065202616576Q480.1403936207033 449.59999833849264 480.1403936207033 439.5003603316214L480.1403936207033 439.5003603316214L480.1403936207033 422.38079456212654Q480.1403936207033 412.2811565552552 474.9094151911355 406.5746346320903Q469.70108168983415 400.8681127089253 460.5751755984236 400.8681127089253L460.5751755984236 400.8681127089253Q451.2681100808808 400.8681127089253 446.12771136437897 406.39347520595805Q441.00995757614373 411.9414826312573 441.00995757614373 422.38079456212654L441.00995757614373 422.38079456212654L441.00995757614373 439.5003603316214Q441.00995757614373 449.93967226249055 446.12771136437897 455.4876796877898Q451.2681100808808 461.01304218482255 460.5751755984236 461.01304218482255Z " fill="black" transform="matrix(0.5104022283576454,0,0,0.5104022283576454,0,78.59068214591252)"/><path d="M696.7844171339304 481.076448628966L696.7844171339304 481.076448628966Q686.0280762073298 481.076448628966 678.1023513140452 477.000361540991Q670.1992713490271 472.92427445301604 665.8740900501203 465.1797089858636Q661.5715536794801 457.4351435187112 661.5715536794801 446.8373170899763L661.5715536794801 446.8373170899763L661.5715536794801 393.0329675287068Q661.5715536794801 382.2766266021062 665.8740900501203 374.5999959197534Q670.1992713490271 366.9460101656671 678.1023513140452 362.8699230776921Q686.0280762073298 358.79383598971714 696.7844171339304 358.79383598971714L696.7844171339304 358.79383598971714Q707.5407580605311 358.79383598971714 715.3759032407496 362.9605027907582Q723.1884034927016 367.10452466353274 727.4230050785422 374.7811553458856Q731.6802515926495 382.43514109997193 731.6802515926495 393.0329675287068L731.6802515926495 393.0329675287068L717.0063380759395 393.0329675287068Q717.0063380759395 382.9333295218355 711.7074248615721 377.45325688133585Q706.4085116472047 371.9958291691027 696.7844171339304 371.9958291691027L696.7844171339304 371.9958291691027Q687.1603226206562 371.9958291691027 681.7028949084231 377.38532209653624Q676.24546719619 382.75217009570326 676.24546719619 392.8744530308411L676.24546719619 392.8744530308411L676.24546719619 446.8373170899763Q676.24546719619 456.93695509684756 681.7028949084231 462.4849625221468Q687.1603226206562 468.0329699474461 696.7844171339304 468.0329699474461L696.7844171339304 468.0329699474461Q706.4085116472047 468.0329699474461 711.7074248615721 462.4849625221468Q717.0063380759395 456.93695509684756 717.0063380759395 446.8373170899763L717.0063380759395 446.8373170899763L717.0063380759395 432.16340357326646L692.8668445438211 432.16340357326646L692.8668445438211 418.8028958960152L731.6802515926495 418.8028958960152L731.6802515926495 446.8373170899763Q731.6802515926495 457.27662902084546 727.4230050785422 465.02119448799795Q723.1884034927016 472.7657599551503 715.3759032407496 476.9097818279249Q707.5407580605311 481.076448628966 696.7844171339304 481.076448628966ZM799.6603262487652 508.7938408271957L771.2862311308062 508.7938408271957L771.2862311308062 495.4333331499445L799.8188407466309 495.4333331499445Q806.6802540113887 495.4333331499445 809.8505439687026 492.33097797743017Q813.0208339260164 489.22862280491586 813.0208339260164 482.70688346415596L813.0208339260164 482.70688346415596L813.0208339260164 471.29383961782605L813.3605078500143 454.98949126592623L810.4166671753658 454.98949126592623L813.2019933521486 452.5438390131412Q813.2019933521486 462.32644802428115 806.6802540113887 468.0329699474461Q800.1585146706288 473.739491870611 789.221014317896 473.739491870611L789.221014317896 473.739491870611Q775.3623182187811 473.739491870611 767.3686585406969 464.68152056400004Q759.3976437908792 455.64619418565553 759.3976437908792 440.31557774921635L759.3976437908792 440.31557774921635L759.3976437908792 421.40706264666585Q759.3976437908792 406.07644621022666 767.3686585406969 397.10905461668176Q775.3623182187811 388.14166302313686 789.221014317896 388.14166302313686L789.221014317896 388.14166302313686Q800.1585146706288 388.14166302313686 806.6802540113887 393.8481849463018Q813.2019933521486 399.5547068694667 813.2019933521486 409.33731588060664L813.2019933521486 409.33731588060664L810.4166671753658 406.8916636278217L813.2019933521486 406.8916636278217L813.2019933521486 389.77209785832684L827.6947474427263 389.77209785832684L827.6947474427263 482.70688346415596Q827.6947474427263 494.7766302302151 820.2898558995718 501.7739130645722Q812.8623194281508 508.7938408271957 799.6603262487652 508.7938408271957L799.6603262487652 508.7938408271957ZM793.6367753298689 461.01304218482255L793.6367753298689 461.01304218482255Q802.7626814212795 461.01304218482255 807.9710149225808 455.3065202616576Q813.2019933521486 449.59999833849264 813.2019933521486 439.5003603316214L813.2019933521486 439.5003603316214L813.2019933521486 422.38079456212654Q813.2019933521486 412.2811565552552 807.9710149225808 406.5746346320903Q802.7626814212795 400.8681127089253 793.6367753298689 400.8681127089253L793.6367753298689 400.8681127089253Q784.329709812326 400.8681127089253 779.1893110958242 406.39347520595805Q774.071557307589 411.9414826312573 774.071557307589 422.38079456212654L774.071557307589 422.38079456212654L774.071557307589 439.5003603316214Q774.071557307589 449.93967226249055 779.1893110958242 455.4876796877898Q784.329709812326 461.01304218482255 793.6367753298689 461.01304218482255ZM882.8125028434545 505.53297115681573L869.7690241619346 505.53297115681573L882.8125028434545 454.8309767680605L904.0081557009242 454.8309767680605L882.8125028434545 505.53297115681573ZM1123.3016410339771 479.446013793776L1054.8233779559978 479.446013793776L1054.8233779559978 360.4242708249071L1123.3016410339771 360.4242708249071L1123.3016410339771 373.78477850215836L1069.338776974842 373.78477850215836L1069.338776974842 410.65072172006523L1117.5951191108122 410.65072172006523L1117.5951191108122 423.8527148994508L1069.338776974842 423.8527148994508L1069.338776974842 466.0855061165247L1123.3016410339771 466.0855061165247L1123.3016410339771 479.446013793776ZM1166.009975744648 479.446013793776L1151.3360622279383 479.446013793776L1151.3360622279383 389.77209785832684L1166.009975744648 389.77209785832684L1166.009975744648 406.8916636278217L1169.1123309171626 406.8916636278217L1166.009975744648 410.3110477960673Q1166.009975744648 399.71322136733244 1172.3732005875422 393.9387646593679Q1178.7364254304366 388.14166302313686 1189.9909547789007 388.14166302313686L1189.9909547789007 388.14166302313686Q1203.5099769540177 388.14166302313686 1211.503636632102 396.45235169695246Q1219.4972963101864 404.76304037076807 1219.4972963101864 419.11992489174656L1219.4972963101864 419.11992489174656L1219.4972963101864 479.446013793776L1204.8233827934764 479.446013793776L1204.8233827934764 420.75035972693655Q1204.8233827934764 411.12626521366235 1199.6829840769747 405.9858664971606Q1194.542585360473 400.8681127089253 1185.75635319306 400.8681127089253L1185.75635319306 400.8681127089253Q1176.6078021733829 400.8681127089253 1171.3088889590153 406.39347520595805Q1166.009975744648 411.9414826312573 1166.009975744648 422.38079456212654L1166.009975744648 422.38079456212654L1166.009975744648 479.446013793776ZM1317.3233864215854 479.446013793776L1292.8668638937354 479.446013793776Q1281.29530554954 479.446013793776 1274.8415009935795 473.24130344874743Q1268.4103413658856 467.0592380319854 1268.4103413658856 455.8047086835212L1268.4103413658856 455.8047086835212L1268.4103413658856 403.1326055355781L1243.138601420441 403.1326055355781L1243.138601420441 389.77209785832684L1268.4103413658856 389.77209785832684L1268.4103413658856 364.50035791288207L1283.0842548825956 364.50035791288207L1283.0842548825956 389.77209785832684L1318.9538212567752 389.77209785832684L1318.9538212567752 403.1326055355781L1283.0842548825956 403.1326055355781L1283.0842548825956 455.8047086835212Q1283.0842548825956 466.0855061165247 1292.8668638937354 466.0855061165247L1292.8668638937354 466.0855061165247L1317.3233864215854 466.0855061165247L1317.3233864215854 479.446013793776ZM1364.7645111399606 479.446013793776L1350.0905976232507 479.446013793776L1350.0905976232507 389.77209785832684L1364.4474821442293 389.77209785832684L1364.4474821442293 406.8916636278217L1367.8668663124747 406.8916636278217L1363.1340763047706 417.4894900565566Q1363.1340763047706 402.9740910377124 1369.4067214345987 395.5691994945579Q1375.7020114926934 388.14166302313686 1388.0887872544838 388.14166302313686L1388.0887872544838 388.14166302313686Q1402.2645123493303 388.14166302313686 1410.665780736212 397.01847490361564Q1419.0670491230937 405.917931712361 1419.0670491230937 421.06738872266794L1419.0670491230937 421.06738872266794L1419.0670491230937 426.4568816501015L1404.3931356063838 426.4568816501015L1404.3931356063838 422.38079456212654Q1404.3931356063838 411.78296813339165 1399.252736889882 406.1670259232928Q1394.1123381733803 400.5284387849274 1384.6694030862384 400.5284387849274L1384.6694030862384 400.5284387849274Q1375.3623375686955 400.5284387849274 1370.063424354328 406.2349607080924Q1364.7645111399606 411.9414826312573 1364.7645111399606 422.38079456212654L1364.7645111399606 422.38079456212654L1364.7645111399606 479.446013793776ZM1478.7364351053936 480.7594196332346L1478.7364351053936 480.7594196332346Q1467.9800941787933 480.7594196332346 1460.1449489985746 476.68333254525965Q1452.3324487466227 472.60724545728465 1448.0072674477158 464.8626799901322Q1443.6820861488093 457.1181145229798 1443.6820861488093 446.5202880942449L1443.6820861488093 446.5202880942449L1443.6820861488093 422.69782355785793Q1443.6820861488093 411.9414826312573 1448.0072674477158 404.287496877171Q1452.3324487466227 396.6108661948182 1460.1449489985746 392.5347791068432Q1467.9800941787933 388.45869201886825 1478.7364351053936 388.45869201886825L1478.7364351053936 388.45869201886825Q1489.4927760319945 388.45869201886825 1497.3279212122131 392.5347791068432Q1505.140421464165 396.6108661948182 1509.4656027630715 404.287496877171Q1513.7907840619785 411.9414826312573 1513.7907840619785 422.5393090599922L1513.7907840619785 422.5393090599922L1513.7907840619785 446.5202880942449Q1513.7907840619785 457.1181145229798 1509.4656027630715 464.8626799901322Q1505.140421464165 472.60724545728465 1497.3279212122131 476.68333254525965Q1489.4927760319945 480.7594196332346 1478.7364351053936 480.7594196332346ZM1478.7364351053936 467.7159409517147L1478.7364351053936 467.7159409517147Q1488.3605296186681 467.7159409517147 1493.7273776178351 462.32644802428115Q1499.1168705452685 456.93695509684756 1499.1168705452685 446.5202880942449L1499.1168705452685 446.5202880942449L1499.1168705452685 422.69782355785793Q1499.1168705452685 412.2811565552552 1493.7273776178351 406.8916636278217Q1488.3605296186681 401.5021707003881 1478.7364351053936 401.5021707003881L1478.7364351053936 401.5021707003881Q1469.2708550899852 401.5021707003881 1463.813427377752 406.8916636278217Q1458.355999665519 412.2811565552552 1458.355999665519 422.69782355785793L1458.355999665519 422.69782355785793L1458.355999665519 446.5202880942449Q1458.355999665519 456.93695509684756 1463.813427377752 462.32644802428115Q1469.2708550899852 467.7159409517147 1478.7364351053936 467.7159409517147ZM1557.3143361902444 508.7938408271957L1542.6404226735347 508.7938408271957L1542.6404226735347 389.77209785832684L1557.3143361902444 389.77209785832684L1557.3143361902444 406.8916636278217L1560.2581768648931 406.8916636278217L1557.3143361902444 410.3110477960673Q1557.3143361902444 400.05289529133034 1564.0851697419362 394.09727915723363Q1570.856003293628 388.14166302313686 1581.9520181442265 388.14166302313686L1581.9520181442265 388.14166302313686Q1595.4710403193433 388.14166302313686 1603.5552797104938 397.01847490361564Q1611.6168741733775 405.917931712361 1611.6168741733775 421.40706264666585L1611.6168741733775 421.40706264666585L1611.6168741733775 447.6525345075713Q1611.6168741733775 457.9333319405748 1607.9483957942 465.4288031967954Q1604.2799174150225 472.92427445301604 1597.6675983611965 477.000361540991Q1591.077924235637 481.076448628966 1581.9520181442265 481.076448628966L1581.9520181442265 481.076448628966Q1571.0145177914935 481.076448628966 1564.1757494550022 475.0528977100696Q1557.3143361902444 469.00670186290677 1557.3143361902444 458.9070638560355L1557.3143361902444 458.9070638560355L1560.2581768648931 462.32644802428115L1556.997307194513 462.32644802428115L1557.3143361902444 482.70688346415596L1557.3143361902444 508.7938408271957ZM1577.0607136386564 468.34999894317747L1577.0607136386564 468.34999894317747Q1586.345134227933 468.34999894317747 1591.6440474423002 462.8246364461447Q1596.9429606566675 457.27662902084546 1596.9429606566675 446.8373170899763L1596.9429606566675 446.8373170899763L1596.9429606566675 422.38079456212654Q1596.9429606566675 411.9414826312573 1591.6440474423002 406.39347520595805Q1586.345134227933 400.8681127089253 1577.0607136386564 400.8681127089253L1577.0607136386564 400.8681127089253Q1568.0933220451118 400.8681127089253 1562.703829117678 406.5746346320903Q1557.3143361902444 412.2811565552552 1557.3143361902444 422.38079456212654L1557.3143361902444 422.38079456212654L1557.3143361902444 446.8373170899763Q1557.3143361902444 456.93695509684756 1562.703829117678 462.64347702001254Q1568.0933220451118 468.34999894317747 1577.0607136386564 468.34999894317747ZM1670.1540137423515 508.7938408271957L1654.5063683101807 508.7938408271957L1667.7083614895662 473.89800636847673L1634.4429618660372 389.77209785832684L1650.7473102179372 389.77209785832684L1671.6259340796755 445.2068822547863Q1672.7581804930019 447.96956350330265 1673.7319124084627 451.8192013086124Q1674.7056443239233 455.64619418565553 1675.3623472436525 458.25036093630615L1675.3623472436525 458.25036093630615Q1676.019050163382 455.64619418565553 1676.9927820788425 451.8192013086124Q1677.9665139943033 447.96956350330265 1678.9628908380305 445.2068822547863L1678.9628908380305 445.2068822547863L1698.5281088603103 389.77209785832684L1714.3342687903466 389.77209785832684L1670.1540137423515 508.7938408271957Z " fill="#4831d4" transform="matrix(0.5104022283576454,0,0,0.5104022283576454,0,78.59068214591252)"/></g></svg>